<svg xmlns="http://www.w3.org/2000/svg" viewBox="0 0 512 512" width="32" height="32">
  <defs>
    <linearGradient id="brainGradient" x1="0%" y1="0%" x2="100%" y2="100%">
      <stop offset="0%" style="stop-color:#4a90e2"/>
      <stop offset="100%" style="stop-color:#357abd"/>
    </linearGradient>
  </defs>
  <path fill="url(#brainGradient)" d="M256 32c-88.004 0-160 71.996-160 160 0 40.375 15.375 77.125 40.5 105.375C88.375 310.875 32 347.125 32 416c0 35.346 28.654 64 64 64h320c35.346 0 64-28.654 64-64 0-68.875-56.375-105.125-104.5-118.625C400.625 269.125 416 232.375 416 192c0-88.004-71.996-160-160-160zm0 32c70.692 0 128 57.308 128 128 0 70.692-57.308 128-128 128-70.692 0-128-57.308-128-128 0-70.692 57.308-128 128-128zm-128 256h256c53.019 0 96 42.981 96 96v32H32v-32c0-53.019 42.981-96 96-96z"/>
  <path fill="#ffffff" d="M256 96c-52.935 0-96 43.065-96 96s43.065 96 96 96 96-43.065 96-96-43.065-96-96-96zm0 32c35.346 0 64 28.654 64 64s-28.654 64-64 64-64-28.654-64-64 28.654-64 64-64z"/>
</svg>